<svg width="800" height="600" xmlns="http://www.w3.org/2000/svg">
 <g>
  <title>Layer 1</title>
  <g id="svg_1" stroke="null">
   <path id="svg_2" fill-rule="evenodd" clip-rule="evenodd" d="m404.68857,225.98735c-0.87768,0.18418 -2.19429,0.6024
    -2.92571,0.92898c-0.73143,0.32705 -14.58089,12.07354 -30.77625,26.10288c-30.93125,26.79472 -31.98125,27.83645
   -31.98661,31.75396c-0.0075,5.65466 4.98554,10.14211 11.31304,10.16742c1.39911,0.00559 3.43393,-0.30951 4.52179,
   -0.70039c1.34054,-0.48111 8.27607,-6.18158 21.52714,-17.69248l19.54946,
   -16.98277l0,78.22368l0,78.22337l1.22714,2.03904c1.46929,2.44126 5.19821,4.78624
   8.29643,5.21641c5.14446,0.71592 11.44125,-2.67887 12.76268,-6.87809c0.41018,
   -1.30604 0.5825,-24.60675 0.58464,-79.09986l0.00321,-77.2495l19.01732,16.50632c19.775,17.16369
    21.46446,18.37438 25.66697,18.39162c4.65571,0.01895 8.87571,-2.25258 10.71089,-5.7657c1.29054,
    -2.47092 1.27625,-6.27367 -0.0325,-8.46553c-0.56696,-0.94933 -14.53143,-13.4198 -31.25232,
    -27.90898c-28.37036,-24.5833 -30.38107,-26.22509 -32.72447,-26.71645c-2.74696,-0.57646 -3.15179,-0.58345 -5.48286,
    -0.09395l0.00001,0.00002zm112.57,0.24708c-2.82,0.78596 -5.6925,3.06167 -7.02982,5.56863c-0.94946,1.77923 -0.98786,
    4.84634 -0.99893,79.56203l-0.01179,77.71229l-19.0175,-16.50648c-14.12554,-12.26036 -19.63339,-16.74781 -21.41125,
    -17.4454c-5.71321,-2.24046 -12.01411,-0.26323 -14.94357,4.68949c-1.355,2.2914 -1.35071,6.31716 0.00946,8.59551c0.56714,
    0.94933 14.53143,13.41918 31.2525,27.90835c28.66607,24.83969 30.36036,26.22183 32.79232,26.73276c3.10357,0.65069 5.76786,
    0.30128 8.60714,-1.13211c1.16964,-0.59013 15.22143,-12.48585 31.22679,-26.43304c30.26607,-26.37651 31.2375,
    -27.34292 31.26607,-31.08867c0.02857,-3.90369 -2.74286,-7.83176 -6.6,-9.35569c-2.78571,-1.10012 -6.89821,
    -1.095 -9.6125,0.01211c-1.4,0.5704 -8.69107,6.59141 -21.27857,17.57259l-19.15,16.7037l-0.26607,-78.56626l-0.26607,
    -78.56611l-1.45179,-1.90704c-2.76071,-3.62882 -8.39821,-5.37233 -13.11643,-4.05666l0.00001,0z" fill="#44D62C" stroke="null"/>
  </g>
  <rect fill="rgba(68, 214, 44, 0)" x="320.99999" y="159.8" width="126" height="287" id="svg_6" stroke="null"/>
  <rect fill="rgba(68, 214, 44, 0)" stroke="null" x="266.99999" y="203.8" width="234" height="113" id="svg_7"/>
 </g>

</svg>