<svg width="8" height="14" viewBox="0 0 8 14" fill="none" xmlns="http://www.w3.org/2000/svg"
     style="overflow: hidden;">
    <path clip-rule="evenodd"
          d="m3.69,0.2c-0.05,0.01 -0.12,0.04 -0.17,0.07c-0.04,0.02 -0.8,0.84 -1.7,1.83c-1.71,1.87 -1.77,1.95 -1.77,2.22c0,0.4 0.28,0.72 0.62,0.72c0.08,0 0.2,-0.02 0.26,-0.05c0.07,-0.03 0.45,-0.44 1.19,-1.24l1.09,-1.19l0,5.48l0,5.47l0.07,0.14c0.08,0.17 0.29,0.34 0.45,0.37c0.29,0.05 0.63,-0.18 0.71,-0.48c0.02,-0.1 0.03,-1.73 0.03,-5.55l0,-5.41l1.05,1.15c1.1,1.21 1.19,1.29 1.42,1.29c0.26,0 0.49,-0.16 0.59,-0.4c0.07,-0.17 0.07,-0.45 0,-0.6c-0.03,-0.07 -0.81,-0.94 -1.73,-1.96c-1.57,-1.72 -1.68,-1.84 -1.81,-1.87c-0.16,-0.03 -0.18,-0.03 -0.31,0zm6.23,0.01c-0.16,0.05 -0.32,0.22 -0.39,0.39c-0.05,0.13 -0.06,0.34 -0.06,5.57l0,5.45l-1.05,-1.15c-0.78,-0.86 -1.09,-1.18 -1.19,-1.23c-0.32,-0.15 -0.66,-0.01 -0.83,0.33c-0.07,0.16 -0.07,0.45 0,0.61c0.03,0.07 0.81,0.94 1.73,1.95c1.59,1.74 1.68,1.84 1.82,1.88c0.17,0.04 0.32,0.02 0.47,-0.09c0.07,-0.03 0.84,-0.87 1.73,-1.85c1.67,-1.85 1.73,-1.92 1.73,-2.18c0,-0.27 -0.15,-0.55 -0.37,-0.65c-0.16,-0.08 -0.39,-0.08 -0.53,0c-0.08,0.03 -0.47,0.46 -1.18,1.23l-1.06,1.16l-0.02,-5.5l-0.01,-5.51l-0.08,-0.14c-0.16,-0.25 -0.46,-0.37 -0.73,-0.28z"
          fill="#44D62C" fill-rule="evenodd" id="svg_1" />
    <rect fill="#ffffff" height="5.41" id="svg_5" width="8.47" x="5.54" y="8.62" />
    <rect fill="#ffffff" height="9.59" id="svg_7" width="2.4" x="8.96" y="-0.05" />
</svg>
